{"title":"Robinson Crusoe on Mars(1964)MP-4[DaScubaDude]","uid":12352170,"size":1339739087,"categoryP":"video","categoryS":"movies","magnet":"?xt=urn:btih:ecc7bc99fd5fe0497afb22ea092ddb1f29e6f90f&amp;dn=Robinson+Crusoe+on+Mars%281964%29MP-4%5BDaScubaDude%5D&amp;tr=udp%3A%2F%2Ftracker.openbittorrent.com%3A80&amp;tr=udp%3A%2F%2Fopen.demonii.com%3A1337&amp;tr=udp%3A%2F%2Ftracker.coppersurfer.tk%3A6969&amp;tr=udp%3A%2F%2Fexodus.desync.com%3A6969","seeders":0,"leechers":0,"uploader":"dascuba","files":1,"time":1441440053,"description":"Robinson Crusoe on Mars (1964)\nNot Rated  |  110 min  |  Adventure, Sci-Fi  |  June 1964 (USA)\n6.7 Your rating:   -/10   Ratings: 6.7/10 from 4,168 users   \nReviews: 93 user | 55 critic\nStranded on Mars with only a monkey as a companion, an astronaut must figure out how to find oxygen, water, and food on the lifeless planet.\n\nDirector: Byron Haskin\nWriters: Ib Melchior (screenplay), John C. Higgins (screenplay) (as John Higgins) , 1 more credit Â»\nStars: Paul Mantee, Victor Lundin, Adam West  \n\nGeneral\nComplete name    : C:Robinson Crusoe on MarsROBINSON_CRUSOE_ON_MARS_Title2_1.mp4\nFormat                                   : MPEG-4\nFormat profile                           : Base Media\nCodec ID                                 : isom\nFile size                                : 1.25 GiB\nDuration                                 : 1h 49mn\nOverall bit rate mode                    : Constant\nOverall bit rate                         : 1 626 Kbps\nMovie name                               : ROBINSON_CRUSOE_ON_MARS\nGenre                                    : Science_Fiction\nWriting application                      : Lavf54.6.100\n\nVideo\nID                                       : 1\nFormat                                   : MPEG-4 Visual\nFormat settings, BVOP                    : No\nFormat settings, QPel                    : No\nFormat settings, GMC                     : No warppoints\nFormat settings, Matrix                  : Default (H.263)\nCodec ID                                 : 20\nDuration                                 : 1h 49mn\nBit rate mode                            : Constant\nBit rate                                 : 1 492 Kbps\nWidth                                    : 720 pixels\nHeight                                   : 404 pixels\nDisplay aspect ratio                     : 16:9\nFrame rate mode                          : Constant\nFrame rate                               : 29.970 fps\nColor space                              : YUV\nChroma subsampling                       : 4:2:0\nBit depth                                : 8 bits\nScan type                                : Progressive\nCompression mode                         : Lossy\nBits/(Pixel*Frame)                       : 0.171\nStream size                              : 1.15 GiB (92%)\nWriting library                          : Lavc54.23.100\n\nAudio\nID                                       : 2\nFormat                                   : MPEG Audio\nFormat version                           : Version 1\nFormat profile                           : Layer 3\nCodec ID                                 : 6B\nDuration                                 : 1h 49mn\nBit rate mode                            : Constant\nBit rate                                 : 128 Kbps\nChannel(s)                               : 2 channels\nChannel(s)_Original                      : 1 channel\nSampling rate                            : 44.1 KHz\nCompression mode                         : Lossy\nStream size                              : 101 MiB (8%)\nWriting library                          : LAME3.99.5","torrent":{"xt":"urn:btih:ecc7bc99fd5fe0497afb22ea092ddb1f29e6f90f","amp;dn":"Robinson+Crusoe+on+Mars%281964%29MP-4%5BDaScubaDude%5D","amp;tr":["udp%3A%2F%2Ftracker.openbittorrent.com%3A80","udp%3A%2F%2Fopen.demonii.com%3A1337","udp%3A%2F%2Ftracker.coppersurfer.tk%3A6969","udp%3A%2F%2Fexodus.desync.com%3A6969"],"infoHash":"ecc7bc99fd5fe0497afb22ea092ddb1f29e6f90f","infoHashBuffer":{"type":"Buffer","data":[236,199,188,153,253,95,224,73,122,251,34,234,9,45,219,31,41,230,249,15]},"announce":[],"urlList":[]}}